<?xml version="1.0" encoding="UTF-8"?>
<svg style="enable-background:new 0 0 210 210" version="1.1" viewBox="0 0 210 210" xml:space="preserve" xmlns="http://www.w3.org/2000/svg" xmlns:cc="http://creativecommons.org/ns#" xmlns:dc="http://purl.org/dc/elements/1.1/" xmlns:rdf="http://www.w3.org/1999/02/22-rdf-syntax-ns#"><metadata><rdf:RDF><cc:Work rdf:about=""><dc:format>image/svg+xml</dc:format><dc:type rdf:resource="http://purl.org/dc/dcmitype/StillImage"/><dc:title/></cc:Work></rdf:RDF></metadata>
<g id="XMLID_2_">
	<path id="XMLID_4_" d="M75,0H15C6.716,0,0,6.716,0,15v60c0,8.284,6.716,15,15,15h60c8.284,0,15-6.716,15-15V15   C90,6.716,83.284,0,75,0z"/>
	<path id="XMLID_6_" d="m75 120h-60c-8.284 0-15 6.716-15 15v60c0 8.284 6.716 15 15 15h60c8.284 0 15-6.716 15-15v-60c0-8.284-6.716-15-15-15z"/>
	<path id="XMLID_8_" d="m195 0h-60c-8.284 0-15 6.716-15 15v60c0 8.284 6.716 15 15 15h60c8.284 0 15-6.716 15-15v-60c0-8.284-6.716-15-15-15z"/>
	<path id="XMLID_10_" d="m195 120h-60c-8.284 0-15 6.716-15 15v60c0 8.284 6.716 15 15 15h60c8.284 0 15-6.716 15-15v-60c0-8.284-6.716-15-15-15z"/>
</g>
</svg>
